<svg width="24" height="24" viewBox="0 0 24 24" fill="none" xmlns="http://www.w3.org/2000/svg">
<g id="dictionary_24dp_FILL0_wght400_GRAD0_opsz24">
<path id="Vector" d="M4.00049 15.7255H5.12549L5.70049 14.0755H8.30049L8.90049 15.7255H10.0005L7.57549 9.27549H6.42549L4.00049 15.7255ZM6.02549 13.1505L6.97549 10.4755H7.02549L7.97549 13.1505H6.02549ZM14.0005 11.4005V9.70049C14.5505 9.46715 15.113 9.29216 15.688 9.17549C16.263 9.05882 16.8672 9.00049 17.5005 9.00049C17.9338 9.00049 18.3588 9.03382 18.7755 9.10049C19.1922 9.16716 19.6005 9.25049 20.0005 9.35049V10.9505C19.6005 10.8005 19.1963 10.688 18.788 10.613C18.3797 10.538 17.9505 10.5005 17.5005 10.5005C16.8672 10.5005 16.2588 10.5797 15.6755 10.738C15.0922 10.8963 14.5338 11.1172 14.0005 11.4005ZM14.0005 16.9005V15.2005C14.5505 14.9672 15.113 14.7922 15.688 14.6755C16.263 14.5588 16.8672 14.5005 17.5005 14.5005C17.9338 14.5005 18.3588 14.5338 18.7755 14.6005C19.1922 14.6672 19.6005 14.7505 20.0005 14.8505V16.4505C19.6005 16.3005 19.1963 16.188 18.788 16.113C18.3797 16.038 17.9505 16.0005 17.5005 16.0005C16.8672 16.0005 16.2588 16.0755 15.6755 16.2255C15.0922 16.3755 14.5338 16.6005 14.0005 16.9005ZM14.0005 14.1505V12.4505C14.5505 12.2172 15.113 12.0422 15.688 11.9255C16.263 11.8088 16.8672 11.7505 17.5005 11.7505C17.9338 11.7505 18.3588 11.7838 18.7755 11.8505C19.1922 11.9172 19.6005 12.0005 20.0005 12.1005V13.7005C19.6005 13.5505 19.1963 13.438 18.788 13.363C18.3797 13.288 17.9505 13.2505 17.5005 13.2505C16.8672 13.2505 16.2588 13.3297 15.6755 13.488C15.0922 13.6463 14.5338 13.8672 14.0005 14.1505ZM6.50049 17.5005C7.28382 17.5005 8.04632 17.588 8.78799 17.763C9.52966 17.938 10.2672 18.2005 11.0005 18.5505V8.70049C10.3172 8.30049 9.59216 8.00049 8.82549 7.80049C8.05882 7.60049 7.28382 7.50049 6.50049 7.50049C5.90049 7.50049 5.30466 7.55882 4.71299 7.67549C4.12132 7.79216 3.55049 7.96715 3.00049 8.20049V18.1005C3.58382 17.9005 4.16299 17.7505 4.73799 17.6505C5.31299 17.5505 5.90049 17.5005 6.50049 17.5005ZM13.0005 18.5505C13.7338 18.2005 14.4713 17.938 15.213 17.763C15.9547 17.588 16.7172 17.5005 17.5005 17.5005C18.1005 17.5005 18.688 17.5505 19.263 17.6505C19.838 17.7505 20.4172 17.9005 21.0005 18.1005V8.20049C20.4505 7.96715 19.8797 7.79216 19.288 7.67549C18.6963 7.55882 18.1005 7.50049 17.5005 7.50049C16.7172 7.50049 15.9422 7.60049 15.1755 7.80049C14.4088 8.00049 13.6838 8.30049 13.0005 8.70049V18.5505ZM12.0005 21.5005C11.2005 20.8672 10.3338 20.3755 9.40049 20.0255C8.46715 19.6755 7.50049 19.5005 6.50049 19.5005C5.80049 19.5005 5.11299 19.5922 4.43799 19.7755C3.76299 19.9588 3.11716 20.2172 2.50049 20.5505C2.15049 20.7338 1.81299 20.7255 1.48799 20.5255C1.16299 20.3255 1.00049 20.0338 1.00049 19.6505V7.60049C1.00049 7.41716 1.04632 7.24215 1.13799 7.07549C1.22965 6.90882 1.36715 6.78382 1.55049 6.70049C2.31716 6.30049 3.11716 6.00049 3.95049 5.80049C4.78382 5.60049 5.63382 5.50049 6.50049 5.50049C7.46715 5.50049 8.41299 5.62549 9.33799 5.87549C10.263 6.12549 11.1505 6.50049 12.0005 7.00049C12.8505 6.50049 13.738 6.12549 14.663 5.87549C15.588 5.62549 16.5338 5.50049 17.5005 5.50049C18.3672 5.50049 19.2172 5.60049 20.0505 5.80049C20.8838 6.00049 21.6838 6.30049 22.4505 6.70049C22.6338 6.78382 22.7713 6.90882 22.863 7.07549C22.9547 7.24215 23.0005 7.41716 23.0005 7.60049V19.6505C23.0005 20.0338 22.838 20.3255 22.513 20.5255C22.188 20.7255 21.8505 20.7338 21.5005 20.5505C20.8838 20.2172 20.238 19.9588 19.563 19.7755C18.888 19.5922 18.2005 19.5005 17.5005 19.5005C16.5005 19.5005 15.5338 19.6755 14.6005 20.0255C13.6672 20.3755 12.8005 20.8672 12.0005 21.5005Z" fill="#6A8899"/>
</g>
</svg>
