<svg width="16" height="16" viewBox="0 0 16 16" fill="none" xmlns="http://www.w3.org/2000/svg">
<g id="Property 1=Circle">
<path id="Vector" d="M8 12.6666C6.71111 12.6666 5.61111 12.2111 4.7 11.3C3.78889 10.3889 3.33334 9.28887 3.33334 7.99998C3.33334 6.71109 3.78889 5.61109 4.7 4.69998C5.61111 3.78887 6.71111 3.33331 8 3.33331C9.28889 3.33331 10.3889 3.78887 11.3 4.69998C12.2111 5.61109 12.6667 6.71109 12.6667 7.99998C12.6667 9.28887 12.2111 10.3889 11.3 11.3C10.3889 12.2111 9.28889 12.6666 8 12.6666ZM8 11.3333C8.92222 11.3333 9.70834 11.0083 10.3583 10.3583C11.0083 9.70831 11.3333 8.9222 11.3333 7.99998C11.3333 7.07776 11.0083 6.29165 10.3583 5.64165C9.70834 4.99165 8.92222 4.66665 8 4.66665C7.07778 4.66665 6.29167 4.99165 5.64167 5.64165C4.99167 6.29165 4.66667 7.07776 4.66667 7.99998C4.66667 8.9222 4.99167 9.70831 5.64167 10.3583C6.29167 11.0083 7.07778 11.3333 8 11.3333Z" fill="#355869"/>
</g>
</svg>
