<svg width="20" height="21" viewBox="0 0 20 21" fill="none" xmlns="http://www.w3.org/2000/svg">
<path d="M15.4167 20.25C14.225 20.25 13.2049 19.8326 12.3562 18.9977C11.5076 18.1628 11.0833 17.1592 11.0833 15.9868C11.0833 14.8145 11.5076 13.8109 12.3562 12.976C13.2049 12.1411 14.225 11.7237 15.4167 11.7237C16.6083 11.7237 17.6285 12.1411 18.4771 12.976C19.3257 13.8109 19.75 14.8145 19.75 15.9868C19.75 17.1592 19.3257 18.1628 18.4771 18.9977C17.6285 19.8326 16.6083 20.25 15.4167 20.25ZM15.4167 18.1184C16.0125 18.1184 16.5226 17.9097 16.9469 17.4923C17.3712 17.0748 17.5833 16.573 17.5833 15.9868C17.5833 15.4007 17.3712 14.8988 16.9469 14.4814C16.5226 14.064 16.0125 13.8553 15.4167 13.8553C14.8208 13.8553 14.3108 14.064 13.8865 14.4814C13.4622 14.8988 13.25 15.4007 13.25 15.9868C13.25 16.573 13.4622 17.0748 13.8865 17.4923C14.3108 17.9097 14.8208 18.1184 15.4167 18.1184ZM4.58333 17.0526C3.39167 17.0526 2.37153 16.6352 1.52292 15.8003C0.674306 14.9655 0.25 13.9618 0.25 12.7895C0.25 11.6171 0.674306 10.6135 1.52292 9.77862C2.37153 8.94375 3.39167 8.52632 4.58333 8.52632C5.775 8.52632 6.79514 8.94375 7.64375 9.77862C8.49236 10.6135 8.91667 11.6171 8.91667 12.7895C8.91667 13.9618 8.49236 14.9655 7.64375 15.8003C6.79514 16.6352 5.775 17.0526 4.58333 17.0526ZM4.58333 14.9211C5.17917 14.9211 5.68924 14.7123 6.11354 14.2949C6.53785 13.8775 6.75 13.3757 6.75 12.7895C6.75 12.2033 6.53785 11.7015 6.11354 11.284C5.68924 10.8666 5.17917 10.6579 4.58333 10.6579C3.9875 10.6579 3.47743 10.8666 3.05313 11.284C2.62882 11.7015 2.41667 12.2033 2.41667 12.7895C2.41667 13.3757 2.62882 13.8775 3.05313 14.2949C3.47743 14.7123 3.9875 14.9211 4.58333 14.9211ZM8.91667 8.52632C7.725 8.52632 6.70486 8.10888 5.85625 7.27401C5.00764 6.43914 4.58333 5.43553 4.58333 4.26316C4.58333 3.09079 5.00764 2.08717 5.85625 1.2523C6.70486 0.417434 7.725 0 8.91667 0C10.1083 0 11.1285 0.417434 11.9771 1.2523C12.8257 2.08717 13.25 3.09079 13.25 4.26316C13.25 5.43553 12.8257 6.43914 11.9771 7.27401C11.1285 8.10888 10.1083 8.52632 8.91667 8.52632ZM8.91667 6.39474C9.5125 6.39474 10.0226 6.18602 10.4469 5.76859C10.8712 5.35115 11.0833 4.84934 11.0833 4.26316C11.0833 3.67697 10.8712 3.17516 10.4469 2.75773C10.0226 2.3403 9.5125 2.13158 8.91667 2.13158C8.32083 2.13158 7.81076 2.3403 7.38646 2.75773C6.96215 3.17516 6.75 3.67697 6.75 4.26316C6.75 4.84934 6.96215 5.35115 7.38646 5.76859C7.81076 6.18602 8.32083 6.39474 8.91667 6.39474Z" fill="#6A8899"/>
</svg>
