<svg width="16" height="16" viewBox="0 0 16 16" fill="none" xmlns="http://www.w3.org/2000/svg">
<g id="Property 1=Attributes">
<circle id="Ellipse 56" cx="8" cy="8" r="3.25" stroke="#101010" stroke-width="1.5"/>
<path id="Vector 27 (Stroke)" fill-rule="evenodd" clip-rule="evenodd" d="M1 8C1 7.58579 1.33579 7.25 1.75 7.25H4.25C4.66421 7.25 5 7.58579 5 8C5 8.41421 4.66421 8.75 4.25 8.75H1.75C1.33579 8.75 1 8.41421 1 8Z" fill="#101010"/>
<path id="Vector 28 (Stroke)" fill-rule="evenodd" clip-rule="evenodd" d="M11 8C11 7.58579 11.3358 7.25 11.75 7.25H14.25C14.6642 7.25 15 7.58579 15 8C15 8.41421 14.6642 8.75 14.25 8.75H11.75C11.3358 8.75 11 8.41421 11 8Z" fill="#101010"/>
</g>
</svg>
